# xmcd
# Track frame offsets:
# 150
# 13862
# 25425
# 37535
# 51930
# 66175
# 77510
# 88167
# 100117
# 111140
# 124600
# 137935
# 149852
# 164060
#
# Disc length: 2334 seconds
# Revision: 0
# Processed by: cddbd v1.5.2PL0 Copyright (c) Steve Scherf et al.
# Submitted via: VisiTrax 2.11.2.271 - For more info visit www.synapsa.com
#
DISCID=c4091c0e
DTITLE=Patti Page - The Very Best Of Patti Page
DYEAR=1992
DGENRE=Easy Listening
TTITLE0=Mockin' Bird Hill
TTITLE1=Hush Hush Sweet Charlotte
TTITLE2=(How Much Is That) Doggie In The Window
TTITLE3=Try To Remember
TTITLE4=Old Cape Cod
TTITLE5=Can't Get Used To Losing You
TTITLE6=Say Wonderful Things
TTITLE7=Cross Over The Bridge
TTITLE8=Tennessee Waltz
TTITLE9=Early In The Morning
TTITLE10=Allegheny Moon
TTITLE11=Gentle On My Mind
TTITLE12=Danny Boy
TTITLE13=Can't Help Falling In Love
EXTD=Columbia\n471076 2
EXTT0=
EXTT1=
EXTT2=
EXTT3=
EXTT4=
EXTT5=
EXTT6=
EXTT7=
EXTT8=
EXTT9=
EXTT10=
EXTT11=
EXTT12=
EXTT13=
PLAYORDER=
